<?xml version="1.0" encoding="utf-8"?>
<!-- Generator: Adobe Illustrator 16.0.0, SVG Export Plug-In . SVG Version: 6.00 Build 0)  -->
<!DOCTYPE svg PUBLIC "-//W3C//DTD SVG 1.1//EN" "http://www.w3.org/Graphics/SVG/1.1/DTD/svg11.dtd">
<svg version="1.1" id="Capa_1" xmlns="http://www.w3.org/2000/svg" xmlns:xlink="http://www.w3.org/1999/xlink" x="0px" y="0px"
	 width="50px" height="50px" viewBox="0 0 50 50" enable-background="new 0 0 50 50" xml:space="preserve">
<path fill="#D6D5D6" d="M25,7.992C15.606,7.992,7.992,15.607,7.992,25c0,9.394,7.614,17.008,17.008,17.008
	c9.393,0,17.008-7.614,17.008-17.008C42.008,15.607,34.393,7.992,25,7.992z M28.755,22.12l-0.195,2.544h-2.608v8.839h-3.296v-8.839
	h-1.759V22.12h1.759v-1.709c0-0.753,0.019-1.916,0.566-2.635c0.576-0.762,1.368-1.28,2.729-1.28c2.218,0,3.152,0.316,3.152,0.316
	l-0.439,2.605c0,0-0.733-0.212-1.417-0.212s-1.296,0.245-1.296,0.929v1.986H28.755z"/>
</svg>
