<?xml version="1.0" encoding="utf-8"?>
<!-- Generator: Adobe Illustrator 16.0.0, SVG Export Plug-In . SVG Version: 6.00 Build 0)  -->
<!DOCTYPE svg PUBLIC "-//W3C//DTD SVG 1.1//EN" "http://www.w3.org/Graphics/SVG/1.1/DTD/svg11.dtd">
<svg version="1.1" id="Layer_1" xmlns="http://www.w3.org/2000/svg" xmlns:xlink="http://www.w3.org/1999/xlink" x="0px" y="0px"
	 width="340px" height="135px" viewBox="0 0 340 135" enable-background="new 0 0 340 135" xml:space="preserve">
<g>
	<path d="M31.384,77.154V44.921h-2.933v-2.906h2.933c-0.31-10.014,1.77-17.913,6.218-23.69c4.442-5.767,9.724-8.659,15.845-8.659
		c2.964,0,5.518,0.857,7.69,2.557c2.185,1.708,3.274,3.758,3.274,6.179c0,1.667-0.533,3.072-1.569,4.204
		c-1.037,1.134-2.344,1.705-3.932,1.705c-1.375,0-2.538-0.465-3.525-1.414c-0.988-0.95-1.473-2.131-1.473-3.583
		c0-2.228,1.24-4.087,3.738-5.56c-1.123-1.007-2.79-1.53-4.998-1.53c-2.111,0-4.118,0.65-6.004,1.937
		c-1.891,1.289-3.051,3.214-3.468,5.811c-0.416,2.594-0.62,6.762-0.62,12.514v9.53h10.557v2.906H42.561v32.232h2.933v2.886H28.452
		v-2.886H31.384L31.384,77.154z"/>
	<polygon points="72.472,78.316 72.472,12.553 69.54,12.553 69.54,9.667 83.533,9.667 83.533,78.316 86.465,78.316 86.465,81.202 
		69.54,81.202 69.54,78.316 72.472,78.316 	"/>
	<polygon points="182.18,38.335 160.679,81.802 159.206,81.802 137.357,38.335 134.424,38.335 134.424,35.43 152.706,35.43 
		152.706,38.335 149.773,38.335 164.649,68.515 179.294,38.335 176.361,38.335 176.361,35.43 185.112,35.43 185.112,38.335 
		182.18,38.335 	"/>
	<polygon points="204.077,35.43 204.077,78.917 207.01,78.917 207.01,81.802 190.123,81.802 190.123,78.917 193.056,78.917 
		193.056,38.335 190.123,38.335 190.123,35.43 204.077,35.43 	"/>
	<path d="M192.668,22.374c0-1.667,0.62-3.1,1.841-4.3c1.22-1.22,2.673-1.821,4.339-1.821s3.118,0.601,4.339,1.782
		c1.24,1.201,1.859,2.634,1.859,4.339c0,1.782-0.619,3.253-1.82,4.435c-1.221,1.163-2.673,1.763-4.378,1.763
		s-3.157-0.601-4.358-1.802C193.27,25.589,192.668,24.117,192.668,22.374L192.668,22.374z"/>
	<path d="M238.932,55.303v-5.792c0-4.726-0.387-7.845-1.162-9.317c-0.774-1.472-2.867-2.208-6.256-2.208
		c-6.141,0-9.202,1.181-9.202,3.525c0,0.678,0.253,1.414,0.775,2.228c0.504,0.813,0.756,1.782,0.756,2.867
		c0,1.55-0.504,2.731-1.531,3.545c-1.026,0.813-2.169,1.22-3.467,1.22c-1.666,0-2.944-0.503-3.854-1.549s-1.356-2.267-1.356-3.661
		c0-3.022,1.763-5.579,5.308-7.632c3.526-2.073,8.465-3.099,14.78-3.099c5.074,0,8.774,0.581,11.118,1.762s3.797,2.635,4.339,4.378
		c0.562,1.724,0.833,4.185,0.833,7.361v20.901c0,3.061,0.213,4.959,0.64,5.714c0.445,0.774,1.123,1.143,2.014,1.143
		c1.376,0,2.693-0.93,3.99-2.77h1.356c-0.987,5.521-4.203,7.884-9.646,7.884c-5.269,0-8.406-2.635-9.434-8.697
		c-4.416,6.063-9.607,8.697-15.535,8.697c-3.932,0-7.094-0.673-9.434-2.809c-2.349-2.145-3.506-4.765-3.506-7.864
		C210.457,61.482,219.949,56.194,238.932,55.303L238.932,55.303z M238.932,64.039v-6.14c-6.992,0.271-11.603,1.317-13.83,3.157
		c-2.247,1.841-3.352,4.495-3.352,7.981c0,2.518,0.659,4.493,2.015,5.888c1.337,1.395,2.887,2.111,4.61,2.111
		c2.247,0,4.262-0.755,6.063-2.246c1.781-1.491,2.982-3.003,3.603-4.514C238.642,68.766,238.932,66.674,238.932,64.039
		L238.932,64.039z"/>
	<path d="M282.796,78.917V12.572h-2.933V9.667h13.954v69.25h2.933v2.886h-16.887v-2.886H282.796L282.796,78.917z M313.789,78.917
		L295.115,56.95l18.111-16.853h-2.933v-2.906h9.487v2.906h-2.932L304.259,51.72l23.38,27.196h2.933v2.886h-19.715v-2.886H313.789
		L313.789,78.917z"/>
	<path d="M120.204,55.303v-5.792c0-4.726-0.387-7.845-1.162-9.317s-2.867-2.208-6.257-2.208c-6.14,0-9.201,1.181-9.201,3.525
		c0,0.678,0.252,1.414,0.774,2.228c0.504,0.813,0.756,1.782,0.756,2.867c0,1.55-0.503,2.731-1.53,3.545s-2.17,1.22-3.467,1.22
		c-1.667,0-2.944-0.503-3.855-1.549s-1.356-2.267-1.356-3.661c0-3.022,1.763-5.579,5.308-7.632c3.525-2.073,8.465-3.099,14.78-3.099
		c5.074,0,8.774,0.581,11.118,1.762c2.343,1.182,3.796,2.635,4.339,4.378c0.562,1.724,0.833,4.185,0.833,7.361v20.901
		c0,3.061,0.213,4.959,0.64,5.714c0.445,0.774,1.123,1.143,2.014,1.143c1.375,0,2.692-0.93,3.99-2.77h1.356
		c-0.987,5.521-4.203,7.884-9.646,7.884c-5.269,0-8.407-2.635-9.433-8.697c-4.417,6.063-9.607,8.697-15.535,8.697
		c-3.933,0-7.095-0.673-9.434-2.809c-2.349-2.145-3.506-4.765-3.506-7.864C91.73,61.482,101.221,56.194,120.204,55.303
		L120.204,55.303z M120.204,64.039v-6.14c-6.993,0.271-11.603,1.317-13.831,3.157c-2.247,1.841-3.351,4.495-3.351,7.981
		c0,2.518,0.658,4.493,2.014,5.888c1.336,1.395,2.886,2.111,4.61,2.111c2.247,0,4.261-0.755,6.063-2.246
		c1.782-1.491,2.983-3.003,3.603-4.514C119.914,68.766,120.204,66.674,120.204,64.039L120.204,64.039z"/>
	<g>
		<path d="M38.789,106.166v2.191h-5.413v14.911h-2.557v-14.911h-2.357v-2.225h2.357v-1.494c0-1.882,0.448-3.31,1.345-4.284
			c0.896-0.974,2.175-1.461,3.835-1.461c0.598,0,1.113,0.033,1.544,0.1s0.857,0.178,1.278,0.332v2.225
			c-0.465-0.133-0.886-0.237-1.262-0.315c-0.377-0.077-0.786-0.116-1.229-0.116c-1.992,0-2.989,1.218-2.989,3.653v1.395H38.789z"/>
		<path d="M74.14,118.137c-0.454,1.096-1.08,2.054-1.876,2.873s-1.749,1.467-2.856,1.942c-1.107,0.476-2.303,0.714-3.586,0.714
			c-1.284,0-2.469-0.238-3.554-0.714c-1.085-0.476-2.025-1.118-2.823-1.926c-0.797-0.809-1.417-1.755-1.859-2.84
			c-0.443-1.084-0.664-2.235-0.664-3.453s0.221-2.375,0.664-3.471c0.442-1.096,1.063-2.054,1.859-2.873
			c0.797-0.818,1.744-1.466,2.839-1.942c1.096-0.476,2.297-0.714,3.604-0.714c1.284,0,2.474,0.238,3.57,0.714
			c1.096,0.477,2.042,1.118,2.839,1.926c0.797,0.809,1.417,1.755,1.86,2.84c0.442,1.085,0.664,2.236,0.664,3.454
			S74.593,117.042,74.14,118.137z M71.715,112.099c-0.321-0.816-0.77-1.528-1.345-2.136s-1.251-1.088-2.025-1.441
			c-0.775-0.353-1.617-0.53-2.524-0.53c-0.93,0-1.783,0.172-2.557,0.514c-0.775,0.343-1.434,0.817-1.976,1.425
			s-0.969,1.313-1.278,2.12c-0.311,0.807-0.465,1.673-0.465,2.601s0.16,1.8,0.481,2.617c0.32,0.816,0.764,1.523,1.328,2.12
			c0.564,0.596,1.234,1.07,2.009,1.424c0.774,0.354,1.616,0.53,2.524,0.53c0.93,0,1.782-0.171,2.557-0.514
			c0.774-0.343,1.438-0.812,1.992-1.408c0.553-0.596,0.985-1.297,1.295-2.104c0.31-0.806,0.465-1.672,0.465-2.6
			C72.197,113.789,72.036,112.917,71.715,112.099z"/>
		<path d="M98.83,118.386c0,1.063,0.266,1.805,0.797,2.226c0.532,0.42,1.229,0.631,2.092,0.631c0.443,0,0.858-0.045,1.246-0.133
			c0.387-0.089,0.802-0.244,1.245-0.465v2.191c-0.443,0.244-0.913,0.427-1.411,0.548c-0.499,0.121-1.058,0.183-1.677,0.183
			c-0.687,0-1.328-0.089-1.926-0.266c-0.598-0.177-1.112-0.459-1.544-0.847s-0.77-0.891-1.013-1.511s-0.365-1.362-0.365-2.226
			v-10.361h-2.391v-2.258h2.391v-5.181h2.557v5.181h5.446v2.258H98.83V118.386z"/>
		<path d="M140.889,118.137c-0.454,1.096-1.08,2.054-1.876,2.873s-1.749,1.467-2.856,1.942c-1.107,0.476-2.303,0.714-3.586,0.714
			c-1.284,0-2.469-0.238-3.554-0.714c-1.085-0.476-2.025-1.118-2.823-1.926c-0.797-0.809-1.417-1.755-1.859-2.84
			c-0.443-1.084-0.664-2.235-0.664-3.453s0.221-2.375,0.664-3.471c0.442-1.096,1.063-2.054,1.859-2.873
			c0.797-0.818,1.744-1.466,2.839-1.942c1.096-0.476,2.297-0.714,3.604-0.714c1.284,0,2.474,0.238,3.57,0.714
			c1.096,0.477,2.042,1.118,2.839,1.926c0.797,0.809,1.417,1.755,1.86,2.84c0.442,1.085,0.664,2.236,0.664,3.454
			S141.342,117.042,140.889,118.137z M138.464,112.099c-0.321-0.816-0.77-1.528-1.345-2.136s-1.251-1.088-2.025-1.441
			c-0.775-0.353-1.617-0.53-2.524-0.53c-0.93,0-1.783,0.172-2.557,0.514c-0.775,0.343-1.434,0.817-1.976,1.425
			s-0.969,1.313-1.278,2.12c-0.311,0.807-0.465,1.673-0.465,2.601s0.16,1.8,0.481,2.617c0.32,0.816,0.764,1.523,1.328,2.12
			c0.564,0.596,1.234,1.07,2.009,1.424c0.774,0.354,1.616,0.53,2.524,0.53c0.93,0,1.782-0.171,2.557-0.514
			c0.774-0.343,1.438-0.812,1.992-1.408c0.553-0.596,0.985-1.297,1.295-2.104c0.31-0.806,0.465-1.672,0.465-2.6
			C138.946,113.789,138.785,112.917,138.464,112.099z"/>
		<path d="M177.85,123.932c-0.41,1.04-0.996,1.909-1.76,2.607c-0.764,0.697-1.683,1.223-2.756,1.577
			c-1.074,0.354-2.275,0.531-3.603,0.531c-1.439,0-2.812-0.199-4.118-0.598c-1.307-0.398-2.535-0.996-3.686-1.793l1.162-1.993
			c0.997,0.708,2.037,1.251,3.122,1.627c1.084,0.377,2.247,0.565,3.487,0.565c1.904,0,3.42-0.516,4.549-1.545
			c1.129-1.029,1.694-2.551,1.694-4.566v-2.025c-0.753,0.996-1.672,1.849-2.756,2.558c-1.085,0.708-2.414,1.063-3.985,1.063
			c-1.041,0-2.042-0.183-3.005-0.548c-0.963-0.365-1.821-0.896-2.573-1.595c-0.753-0.697-1.356-1.544-1.81-2.54
			c-0.454-0.996-0.681-2.125-0.681-3.388c0-1.262,0.227-2.396,0.681-3.403c0.454-1.008,1.057-1.86,1.81-2.558
			c0.752-0.697,1.616-1.233,2.59-1.61c0.974-0.376,1.97-0.564,2.989-0.564c0.797,0,1.533,0.095,2.208,0.282
			c0.675,0.188,1.284,0.438,1.827,0.747c0.542,0.311,1.035,0.676,1.478,1.096c0.443,0.421,0.841,0.863,1.196,1.329v-3.089h2.557
			v14.18C178.464,121.674,178.259,122.892,177.85,123.932z M175.476,111.429c-0.354-0.719-0.825-1.334-1.412-1.843
			c-0.587-0.51-1.257-0.902-2.009-1.18c-0.753-0.276-1.539-0.415-2.357-0.415c-0.819,0-1.589,0.133-2.308,0.398
			c-0.72,0.266-1.351,0.653-1.893,1.163c-0.542,0.509-0.969,1.124-1.278,1.843c-0.311,0.72-0.465,1.522-0.465,2.407
			c0,0.886,0.16,1.688,0.481,2.408c0.32,0.72,0.752,1.34,1.295,1.859c0.542,0.521,1.173,0.919,1.893,1.195
			c0.719,0.277,1.478,0.415,2.275,0.415c0.819,0,1.604-0.138,2.357-0.415c0.752-0.276,1.422-0.669,2.009-1.179
			c0.586-0.509,1.057-1.123,1.412-1.843c0.354-0.72,0.531-1.522,0.531-2.408C176.007,112.952,175.829,112.149,175.476,111.429z"/>
		<path d="M202.673,123.268h-2.558v-17.169h2.558v4.483c0.31-0.708,0.697-1.361,1.162-1.96c0.465-0.598,0.996-1.112,1.594-1.544
			c0.599-0.432,1.251-0.758,1.96-0.979c0.708-0.221,1.472-0.32,2.291-0.299v2.756h-0.199c-0.93,0-1.81,0.166-2.64,0.499
			c-0.83,0.332-1.556,0.83-2.176,1.494s-1.107,1.489-1.461,2.474c-0.354,0.985-0.531,2.12-0.531,3.404V123.268z"/>
	</g>
	<g>
		<path d="M231.934,108.473c-0.83,0.232-1.644,0.537-2.44,0.914l-0.764-2.093c0.951-0.442,1.914-0.791,2.889-1.046
			c0.974-0.254,2.092-0.382,3.354-0.382c2.346,0,4.15,0.581,5.413,1.743c1.262,1.162,1.893,2.884,1.893,5.164v10.494h-2.458v-2.59
			c-0.598,0.774-1.4,1.461-2.407,2.059c-1.008,0.598-2.274,0.896-3.803,0.896c-0.797,0-1.577-0.111-2.341-0.332
			s-1.45-0.559-2.059-1.013c-0.609-0.454-1.097-1.013-1.462-1.677c-0.365-0.665-0.548-1.45-0.548-2.358
			c0-0.907,0.177-1.71,0.531-2.407s0.858-1.279,1.512-1.744c0.652-0.465,1.428-0.818,2.324-1.063
			c0.896-0.243,1.888-0.365,2.973-0.365c1.106,0,2.069,0.066,2.889,0.199s1.616,0.311,2.391,0.531v-0.598
			c0-1.549-0.448-2.717-1.345-3.503s-2.153-1.18-3.769-1.18C233.688,108.125,232.764,108.241,231.934,108.473z M231.116,115.531
			c-0.861,0.642-1.291,1.517-1.291,2.623c0,0.554,0.115,1.041,0.348,1.461c0.231,0.421,0.546,0.781,0.943,1.08
			c0.396,0.299,0.854,0.525,1.373,0.681s1.064,0.232,1.639,0.232c0.794,0,1.539-0.116,2.234-0.349s1.302-0.554,1.82-0.964
			c0.519-0.409,0.927-0.896,1.225-1.461s0.446-1.189,0.446-1.876v-1.66c-0.64-0.178-1.374-0.344-2.2-0.498
			c-0.828-0.155-1.771-0.233-2.83-0.233C233.212,114.567,231.977,114.888,231.116,115.531z"/>
		<path d="M272.697,106.166v2.191h-5.413v14.911h-2.557v-14.911h-2.358v-2.225h2.358v-1.494c0-1.882,0.448-3.31,1.345-4.284
			c0.896-0.974,2.175-1.461,3.836-1.461c0.598,0,1.112,0.033,1.544,0.1s0.857,0.178,1.278,0.332v2.225
			c-0.465-0.133-0.886-0.237-1.262-0.315c-0.377-0.077-0.786-0.116-1.229-0.116c-1.993,0-2.989,1.218-2.989,3.653v1.395H272.697z"/>
		<path d="M292.058,102.346v-2.822h2.922v2.822H292.058z M292.224,123.268v-17.169h2.557v17.169H292.224z"/>
		<path d="M320.201,108.473c-0.83,0.232-1.644,0.537-2.44,0.914l-0.764-2.093c0.951-0.442,1.914-0.791,2.889-1.046
			c0.974-0.254,2.092-0.382,3.354-0.382c2.346,0,4.15,0.581,5.413,1.743c1.262,1.162,1.893,2.884,1.893,5.164v10.494h-2.458v-2.59
			c-0.598,0.774-1.4,1.461-2.407,2.059c-1.008,0.598-2.274,0.896-3.803,0.896c-0.797,0-1.577-0.111-2.341-0.332
			s-1.45-0.559-2.059-1.013c-0.609-0.454-1.097-1.013-1.462-1.677c-0.365-0.665-0.548-1.45-0.548-2.358
			c0-0.907,0.177-1.71,0.531-2.407s0.858-1.279,1.512-1.744c0.652-0.465,1.428-0.818,2.324-1.063
			c0.896-0.243,1.888-0.365,2.973-0.365c1.106,0,2.069,0.066,2.889,0.199s1.616,0.311,2.391,0.531v-0.598
			c0-1.549-0.448-2.717-1.345-3.503s-2.153-1.18-3.769-1.18C321.956,108.125,321.031,108.241,320.201,108.473z M319.384,115.531
			c-0.861,0.642-1.291,1.517-1.291,2.623c0,0.554,0.115,1.041,0.348,1.461c0.231,0.421,0.546,0.781,0.943,1.08
			c0.396,0.299,0.854,0.525,1.373,0.681s1.064,0.232,1.639,0.232c0.794,0,1.539-0.116,2.234-0.349s1.302-0.554,1.82-0.964
			c0.519-0.409,0.927-0.896,1.225-1.461s0.446-1.189,0.446-1.876v-1.66c-0.64-0.178-1.374-0.344-2.2-0.498
			c-0.828-0.155-1.771-0.233-2.83-0.233C321.479,114.567,320.244,114.888,319.384,115.531z"/>
	</g>
	<polygon fill-rule="evenodd" clip-rule="evenodd" points="103.954,20.921 122.236,20.921 122.236,23.827 103.954,23.827 
		103.954,20.921 	"/>
</g>
</svg>
