<?xml version="1.0" encoding="utf-8"?>
<!-- Generator: Adobe Illustrator 16.0.0, SVG Export Plug-In . SVG Version: 6.00 Build 0)  -->
<!DOCTYPE svg PUBLIC "-//W3C//DTD SVG 1.1//EN" "http://www.w3.org/Graphics/SVG/1.1/DTD/svg11.dtd">
<svg version="1.1" id="Layer_1" xmlns="http://www.w3.org/2000/svg" xmlns:xlink="http://www.w3.org/1999/xlink" x="0px" y="0px"
	 width="100px" height="100px" viewBox="0 0 100 100" enable-background="new 0 0 100 100" xml:space="preserve">
<g>
	<path fill="#DEDDDD" d="M45.048,33.955c3.132,0,5.967,1.271,8.02,3.322c2.053,2.053,3.322,4.888,3.322,8.021
		c0,3.132-1.27,5.967-3.322,8.02c-2.052,2.052-4.888,3.321-8.02,3.321s-5.968-1.27-8.02-3.321c-2.052-2.053-3.322-4.888-3.322-8.02
		c0-3.133,1.27-5.968,3.322-8.021C39.08,35.226,41.916,33.955,45.048,33.955L45.048,33.955z M52.215,38.13
		c-1.834-1.834-4.368-2.968-7.167-2.968s-5.333,1.134-7.167,2.968c-1.834,1.835-2.969,4.368-2.969,7.168
		c0,2.799,1.134,5.333,2.969,7.166c1.834,1.835,4.368,2.969,7.167,2.969s5.333-1.134,7.167-2.969
		c1.834-1.833,2.969-4.367,2.969-7.166C55.184,42.498,54.049,39.965,52.215,38.13L52.215,38.13z"/>
	<path fill="#DEDDDD" d="M5,34.758h16.344c5.051,0,8.359,2.606,9.822,5.921c0.56,1.27,0.847,2.646,0.853,4.021
		c0.007,1.373-0.268,2.745-0.828,4.008c-1.426,3.21-4.681,5.701-9.847,5.701H21.18l17.323,23.211h-1.504L19.495,54.165l-0.719-0.963
		h1.202h1.366c4.617,0,7.503-2.177,8.749-4.98c0.491-1.104,0.731-2.309,0.725-3.518c-0.006-1.206-0.259-2.418-0.754-3.54
		c-1.285-2.911-4.218-5.2-8.72-5.2H5.905L5,34.758L5,34.758z"/>
	<path fill="#DEDDDD" d="M58.643,33.955h6.971h0.521h0.603v0.058c2.78,0.273,5.266,1.551,7.089,3.465
		c1.938,2.035,3.129,4.789,3.129,7.819c0,3.031-1.19,5.784-3.129,7.82c-1.823,1.913-4.309,3.19-7.089,3.465v0.058h-0.603h-7.492
		h-0.604v-0.604V34.559v-0.604H58.643L58.643,33.955z M65.613,35.161h-6.368v20.272h6.637l0.225-0.011
		c2.69-0.129,5.107-1.308,6.848-3.136c1.731-1.816,2.795-4.278,2.795-6.99c0-2.711-1.063-5.173-2.795-6.99
		c-1.74-1.827-4.157-3.006-6.848-3.135l-0.219-0.011H65.613L65.613,35.161z"/>
	<polygon fill="#DEDDDD" points="69.429,22.381 95,56.662 93.496,56.662 88.33,49.736 75.595,49.736 75.595,48.53 87.431,48.53 
		67.926,22.381 69.429,22.381 	"/>
	<path fill="#DEDDDD" stroke="#DEDDDD" stroke-width="0.216" stroke-miterlimit="22.9256" d="M5.356,66.593h2.592
		c0-0.408-0.114-0.736-0.344-0.983c-0.229-0.247-0.53-0.371-0.903-0.371c-0.387,0-0.701,0.121-0.943,0.363
		C5.518,65.844,5.384,66.174,5.356,66.593L5.356,66.593z M8.119,67.423c-0.083,0.315-0.256,0.566-0.521,0.754
		c-0.264,0.188-0.577,0.282-0.937,0.282c-0.475,0-0.851-0.153-1.127-0.458c-0.277-0.305-0.416-0.717-0.416-1.239
		c0-0.524,0.139-0.938,0.416-1.242c0.276-0.304,0.652-0.455,1.126-0.455c0.478,0,0.85,0.14,1.121,0.422
		c0.27,0.282,0.405,0.672,0.405,1.17v0.118H5.35v0.049c0,0.437,0.122,0.79,0.363,1.059c0.241,0.269,0.558,0.402,0.948,0.402
		c0.299,0,0.56-0.077,0.782-0.23C7.666,67.9,7.818,67.689,7.9,67.423H8.119L8.119,67.423z"/>
	<path fill="#DEDDDD" stroke="#DEDDDD" stroke-width="0.216" stroke-miterlimit="22.9256" d="M9.048,67.41
		c0.06,0.283,0.187,0.498,0.383,0.644c0.196,0.146,0.457,0.218,0.781,0.218c0.323,0,0.583-0.067,0.777-0.201
		c0.195-0.135,0.293-0.313,0.293-0.534c0-0.159-0.057-0.287-0.171-0.386c-0.115-0.099-0.298-0.179-0.549-0.239
		c-0.043-0.01-0.107-0.025-0.191-0.046c-0.589-0.134-0.973-0.263-1.147-0.387c-0.094-0.065-0.166-0.146-0.217-0.242
		c-0.051-0.097-0.077-0.203-0.077-0.319c0-0.252,0.116-0.457,0.346-0.614c0.23-0.159,0.531-0.238,0.902-0.238
		c0.347,0,0.629,0.083,0.849,0.248c0.218,0.165,0.344,0.393,0.376,0.682h-0.217c-0.039-0.245-0.147-0.433-0.324-0.562
		c-0.179-0.13-0.417-0.194-0.714-0.194c-0.29,0-0.527,0.062-0.71,0.185c-0.184,0.123-0.275,0.28-0.275,0.472
		c0,0.317,0.37,0.563,1.111,0.736c0.031,0.008,0.056,0.014,0.071,0.019c0.454,0.103,0.763,0.221,0.925,0.351
		c0.164,0.13,0.246,0.31,0.246,0.542c0,0.264-0.122,0.482-0.366,0.656s-0.553,0.261-0.929,0.261c-0.404,0-0.728-0.093-0.969-0.277
		c-0.243-0.185-0.383-0.442-0.419-0.771H9.048L9.048,67.41z"/>
	<path fill="#DEDDDD" stroke="#DEDDDD" stroke-width="0.216" stroke-miterlimit="22.9256" d="M12.746,67.653
		c0,0.251,0.023,0.417,0.07,0.495c0.046,0.077,0.129,0.117,0.251,0.117c0.048,0,0.098-0.003,0.149-0.011
		c0.052-0.007,0.116-0.02,0.188-0.038v0.179c-0.075,0.016-0.144,0.028-0.206,0.037c-0.062,0.01-0.117,0.014-0.167,0.014
		c-0.183,0-0.313-0.044-0.393-0.135c-0.078-0.091-0.118-0.24-0.118-0.451v-2.553h-0.458v-0.175h0.458v-0.887h0.224v0.887h0.659
		v0.175h-0.659V67.653L12.746,67.653z"/>
	<path fill="#DEDDDD" stroke="#DEDDDD" stroke-width="0.216" stroke-miterlimit="22.9256" d="M16.712,65.133v3.239h-0.217v-0.506
		c-0.112,0.192-0.272,0.34-0.481,0.441c-0.208,0.101-0.457,0.151-0.744,0.151c-0.419,0-0.732-0.096-0.938-0.287
		c-0.207-0.192-0.31-0.482-0.31-0.872v-2.167h0.217v2.103c0,0.368,0.081,0.634,0.242,0.797c0.16,0.164,0.421,0.246,0.782,0.246
		c0.206,0,0.386-0.027,0.542-0.081s0.288-0.135,0.396-0.242s0.184-0.233,0.228-0.377c0.044-0.143,0.067-0.372,0.067-0.689v-0.184
		v-1.572H16.712L16.712,65.133z M14.989,64.727l0.713-0.998h0.372l-0.867,0.998H14.989L14.989,64.727z"/>
	<path fill="#DEDDDD" stroke="#DEDDDD" stroke-width="0.216" stroke-miterlimit="22.9256" d="M20.501,66.763
		c0-0.474-0.123-0.846-0.369-1.117c-0.247-0.271-0.582-0.407-1.005-0.407c-0.425,0-0.76,0.136-1.007,0.407s-0.371,0.644-0.371,1.117
		c0,0.472,0.124,0.844,0.371,1.115s0.583,0.406,1.007,0.406c0.424,0,0.759-0.135,1.005-0.406
		C20.378,67.606,20.501,67.234,20.501,66.763L20.501,66.763z M20.718,63.891v4.481h-0.217v-0.719
		c-0.117,0.264-0.291,0.464-0.524,0.601s-0.517,0.205-0.85,0.205c-0.496,0-0.888-0.151-1.174-0.454s-0.428-0.717-0.428-1.243
		s0.144-0.94,0.431-1.243s0.678-0.454,1.172-0.454c0.328,0,0.613,0.068,0.854,0.204c0.239,0.137,0.413,0.329,0.521,0.576v-1.954
		H20.718L20.718,63.891z"/>
	<path fill="#DEDDDD" stroke="#DEDDDD" stroke-width="0.216" stroke-miterlimit="22.9256" d="M21.711,68.372v-3.239h0.217v3.239
		H21.711L21.711,68.372z M21.711,64.415v-0.524h0.217v0.524H21.711L21.711,64.415z"/>
	<path fill="#DEDDDD" stroke="#DEDDDD" stroke-width="0.216" stroke-miterlimit="22.9256" d="M22.964,66.763
		c0,0.472,0.123,0.844,0.368,1.115s0.579,0.406,1.004,0.406c0.424,0,0.76-0.135,1.008-0.406c0.249-0.271,0.373-0.644,0.373-1.115
		c0-0.474-0.124-0.846-0.373-1.117c-0.249-0.271-0.584-0.407-1.008-0.407c-0.425,0-0.759,0.136-1.004,0.407
		S22.964,66.289,22.964,66.763L22.964,66.763z M22.74,66.762c0-0.526,0.142-0.94,0.427-1.243c0.285-0.303,0.675-0.454,1.169-0.454
		c0.495,0,0.886,0.151,1.173,0.454s0.431,0.717,0.431,1.243c0,0.524-0.144,0.938-0.431,1.242s-0.678,0.455-1.173,0.455
		c-0.495,0-0.885-0.151-1.169-0.454C22.882,67.702,22.74,67.288,22.74,66.762L22.74,66.762z"/>
	<path fill="#DEDDDD" stroke="#DEDDDD" stroke-width="0.216" stroke-miterlimit="22.9256" d="M36.132,66.763
		c0-0.474-0.123-0.846-0.369-1.117c-0.246-0.271-0.581-0.407-1.005-0.407c-0.425,0-0.76,0.136-1.008,0.407s-0.371,0.644-0.371,1.117
		c0,0.472,0.124,0.844,0.371,1.115s0.583,0.406,1.008,0.406c0.424,0,0.759-0.135,1.005-0.406
		C36.01,67.606,36.132,67.234,36.132,66.763L36.132,66.763z M36.349,63.891v4.481h-0.217v-0.719
		c-0.117,0.264-0.291,0.464-0.524,0.601s-0.517,0.205-0.85,0.205c-0.496,0-0.889-0.151-1.175-0.454
		c-0.286-0.303-0.428-0.717-0.428-1.243s0.144-0.94,0.431-1.243s0.678-0.454,1.172-0.454c0.328,0,0.613,0.068,0.853,0.204
		c0.239,0.137,0.414,0.329,0.521,0.576v-1.954H36.349L36.349,63.891z"/>
	<path fill="#DEDDDD" stroke="#DEDDDD" stroke-width="0.216" stroke-miterlimit="22.9256" d="M37.378,66.593h2.591
		c0-0.408-0.114-0.736-0.344-0.983c-0.229-0.247-0.53-0.371-0.902-0.371c-0.388,0-0.702,0.121-0.943,0.363
		C37.539,65.844,37.405,66.174,37.378,66.593L37.378,66.593z M40.14,67.423c-0.083,0.315-0.255,0.566-0.521,0.754
		c-0.264,0.188-0.577,0.282-0.937,0.282c-0.475,0-0.851-0.153-1.127-0.458c-0.276-0.305-0.416-0.717-0.416-1.239
		c0-0.524,0.139-0.938,0.416-1.242c0.277-0.304,0.653-0.455,1.126-0.455c0.478,0,0.85,0.14,1.121,0.422
		c0.27,0.282,0.405,0.672,0.405,1.17v0.118h-2.837v0.049c0,0.437,0.122,0.79,0.363,1.059s0.558,0.402,0.948,0.402
		c0.299,0,0.561-0.077,0.782-0.23c0.223-0.153,0.376-0.364,0.458-0.631H40.14L40.14,67.423z"/>
	<path fill="#DEDDDD" stroke="#DEDDDD" stroke-width="0.216" stroke-miterlimit="22.9256" d="M41.069,67.41
		c0.06,0.283,0.187,0.498,0.383,0.644c0.196,0.146,0.456,0.218,0.781,0.218c0.323,0,0.583-0.067,0.777-0.201
		c0.195-0.135,0.293-0.313,0.293-0.534c0-0.159-0.057-0.287-0.171-0.386s-0.298-0.179-0.549-0.239
		c-0.043-0.01-0.107-0.025-0.191-0.046c-0.589-0.134-0.972-0.263-1.147-0.387c-0.093-0.065-0.166-0.146-0.217-0.242
		c-0.051-0.097-0.077-0.203-0.077-0.319c0-0.252,0.115-0.457,0.345-0.614c0.23-0.159,0.531-0.238,0.902-0.238
		c0.347,0,0.629,0.083,0.849,0.248c0.218,0.165,0.345,0.393,0.376,0.682h-0.217c-0.038-0.245-0.147-0.433-0.324-0.562
		c-0.179-0.13-0.417-0.194-0.714-0.194c-0.29,0-0.527,0.062-0.71,0.185s-0.275,0.28-0.275,0.472c0,0.317,0.37,0.563,1.111,0.736
		c0.031,0.008,0.056,0.014,0.071,0.019c0.454,0.103,0.763,0.221,0.926,0.351c0.163,0.13,0.245,0.31,0.245,0.542
		c0,0.264-0.122,0.482-0.366,0.656c-0.244,0.174-0.553,0.261-0.929,0.261c-0.404,0-0.727-0.093-0.969-0.277
		c-0.243-0.185-0.383-0.442-0.419-0.771H41.069L41.069,67.41z"/>
	<path fill="#DEDDDD" stroke="#DEDDDD" stroke-width="0.216" stroke-miterlimit="22.9256" d="M44.375,68.372v-3.239h0.217v3.239
		H44.375L44.375,68.372z M44.375,64.415v-0.524h0.217v0.524H44.375L44.375,64.415z"/>
	<path fill="#DEDDDD" stroke="#DEDDDD" stroke-width="0.216" stroke-miterlimit="22.9256" d="M48.395,66.763
		c0-0.474-0.123-0.846-0.369-1.117c-0.246-0.271-0.581-0.407-1.005-0.407c-0.425,0-0.76,0.136-1.008,0.407
		c-0.247,0.271-0.371,0.644-0.371,1.117c0,0.472,0.124,0.844,0.371,1.115c0.248,0.271,0.583,0.406,1.008,0.406
		c0.424,0,0.759-0.135,1.005-0.406C48.272,67.606,48.395,67.234,48.395,66.763L48.395,66.763z M48.395,67.681
		c-0.121,0.249-0.301,0.442-0.542,0.58c-0.24,0.136-0.521,0.204-0.846,0.204c-0.489,0-0.876-0.152-1.162-0.457
		c-0.285-0.305-0.427-0.72-0.427-1.246c0-0.528,0.143-0.943,0.428-1.245c0.286-0.302,0.679-0.452,1.175-0.452
		c0.33,0,0.617,0.069,0.859,0.21c0.243,0.141,0.415,0.335,0.515,0.583v-0.725h0.217v3.066c0,0.245-0.018,0.433-0.052,0.562
		c-0.036,0.129-0.095,0.248-0.176,0.354c-0.142,0.186-0.335,0.325-0.582,0.42c-0.246,0.094-0.538,0.141-0.875,0.141
		c-0.411,0-0.739-0.087-0.985-0.261c-0.246-0.174-0.371-0.405-0.376-0.694h0.21c0.014,0.244,0.126,0.436,0.338,0.573
		c0.212,0.139,0.501,0.207,0.865,0.207c0.303,0,0.559-0.045,0.768-0.138s0.371-0.23,0.487-0.413
		c0.057-0.091,0.098-0.198,0.124-0.319c0.024-0.122,0.038-0.329,0.038-0.621V67.681L48.395,67.681z"/>
	<path fill="#DEDDDD" stroke="#DEDDDD" stroke-width="0.216" stroke-miterlimit="22.9256" d="M49.584,68.372v-3.239h0.224v0.529
		c0.112-0.195,0.272-0.344,0.482-0.445s0.458-0.152,0.743-0.152c0.419,0,0.732,0.095,0.938,0.287c0.207,0.189,0.31,0.481,0.31,0.871
		v2.149h-0.224v-2.085c0-0.37-0.08-0.636-0.239-0.799c-0.16-0.162-0.42-0.243-0.778-0.243c-0.206,0-0.385,0.027-0.542,0.081
		c-0.156,0.053-0.289,0.134-0.396,0.242c-0.107,0.107-0.183,0.233-0.228,0.376c-0.044,0.144-0.066,0.374-0.066,0.693v0.18v1.555
		H49.584L49.584,68.372z"/>
</g>
</svg>
