<?xml version="1.0" encoding="utf-8"?>
<!-- Generator: Adobe Illustrator 16.0.0, SVG Export Plug-In . SVG Version: 6.00 Build 0)  -->
<!DOCTYPE svg PUBLIC "-//W3C//DTD SVG 1.1//EN" "http://www.w3.org/Graphics/SVG/1.1/DTD/svg11.dtd">
<svg version="1.1" id="Capa_1" xmlns="http://www.w3.org/2000/svg" xmlns:xlink="http://www.w3.org/1999/xlink" x="0px" y="0px"
	 width="50px" height="50px" viewBox="0 0 50 50" enable-background="new 0 0 50 50" xml:space="preserve">
<g>
	<path fill="#D6D5D6" d="M25.002,27.993c1.65,0,2.994-1.342,2.994-2.992c0-0.652-0.212-1.254-0.567-1.746
		c-0.544-0.754-1.428-1.248-2.427-1.248s-1.883,0.494-2.427,1.248c-0.354,0.492-0.566,1.094-0.566,1.746
		C22.009,26.651,23.352,27.993,25.002,27.993z"/>
	<polygon fill="#D6D5D6" points="31.538,21.338 31.538,18.83 31.538,18.456 31.162,18.457 28.654,18.464 28.664,21.347 	"/>
	<path fill="#D6D5D6" d="M18.155,30.217c0,0.898,0.73,1.629,1.63,1.629h10.434c0.899,0,1.63-0.73,1.63-1.629v-6.963H29.31
		c0.219,0.539,0.343,1.129,0.343,1.746c0,2.563-2.086,4.65-4.65,4.65s-4.65-2.087-4.65-4.65c0-0.617,0.123-1.207,0.343-1.746h-2.539
		V30.217z"/>
	<path fill="#D6D5D6" d="M25,42.008c9.394,0,17.008-7.615,17.008-17.009c0-9.393-7.614-17.007-17.008-17.007
		C15.605,7.992,7.992,15.607,7.992,25C7.992,34.393,15.605,42.008,25,42.008z M16.498,19.783c0-1.813,1.475-3.286,3.287-3.286
		h10.434c1.813,0,3.287,1.474,3.287,3.286v3.472v6.963c0,1.813-1.475,3.287-3.287,3.287H19.785c-1.813,0-3.287-1.475-3.287-3.287
		v-6.963V19.783z"/>
</g>
</svg>
