<?xml version="1.0" encoding="utf-8"?>
<!-- Generator: Adobe Illustrator 16.0.0, SVG Export Plug-In . SVG Version: 6.00 Build 0)  -->
<!DOCTYPE svg PUBLIC "-//W3C//DTD SVG 1.1//EN" "http://www.w3.org/Graphics/SVG/1.1/DTD/svg11.dtd">
<svg version="1.1" id="Capa_1" xmlns="http://www.w3.org/2000/svg" xmlns:xlink="http://www.w3.org/1999/xlink" x="0px" y="0px"
	 width="50px" height="50px" viewBox="0 0 50 50" enable-background="new 0 0 50 50" xml:space="preserve">
<path fill="#D6D5D6" d="M25,7.993C15.607,7.993,7.992,15.608,7.992,25c0,9.394,7.615,17.008,17.008,17.008
	c9.394,0,17.008-7.614,17.008-17.008C42.008,15.608,34.394,7.993,25,7.993z M25,33.459c-0.837,0-1.646-0.123-2.41-0.349
	c0.323-0.512,0.676-1.166,0.856-1.822c0.104-0.378,0.599-2.337,0.599-2.337c0.295,0.563,1.159,1.06,2.077,1.06
	c2.734,0,4.589-2.492,4.589-5.828c0-2.521-2.137-4.871-5.384-4.871c-4.041,0-6.077,2.896-6.077,5.313
	c0,1.463,0.553,2.764,1.742,3.248c0.194,0.08,0.369,0.003,0.425-0.213c0.039-0.148,0.133-0.526,0.173-0.682
	c0.057-0.214,0.035-0.288-0.123-0.475c-0.342-0.404-0.56-0.927-0.56-1.668c0-2.148,1.607-4.072,4.187-4.072
	c2.283,0,3.538,1.396,3.538,3.259c0,2.452-1.085,4.521-2.696,4.521c-0.89,0-1.555-0.734-1.342-1.637
	c0.255-1.078,0.751-2.24,0.751-3.018c0-0.696-0.374-1.277-1.147-1.277c-0.909,0-1.64,0.941-1.64,2.201
	c0,0.803,0.271,1.346,0.271,1.346s-0.93,3.943-1.094,4.634c-0.152,0.646-0.172,1.359-0.147,1.952
	c-2.997-1.314-5.091-4.307-5.091-7.788c0-4.696,3.808-8.504,8.504-8.504s8.503,3.808,8.503,8.504S29.697,33.459,25,33.459z"/>
</svg>
