<?xml version="1.0" encoding="utf-8"?>
<!-- Generator: Adobe Illustrator 16.0.0, SVG Export Plug-In . SVG Version: 6.00 Build 0)  -->
<!DOCTYPE svg PUBLIC "-//W3C//DTD SVG 1.1//EN" "http://www.w3.org/Graphics/SVG/1.1/DTD/svg11.dtd">
<svg version="1.1" id="Layer_1" xmlns="http://www.w3.org/2000/svg" xmlns:xlink="http://www.w3.org/1999/xlink" x="0px" y="0px"
	 width="243.782px" height="315.483px" viewBox="0 0 243.782 315.483" enable-background="new 0 0 243.782 315.483"
	 xml:space="preserve">
<g>
	<path fill-rule="evenodd" clip-rule="evenodd" d="M132.12,192.686l24.209-13.979v0.002l37.492-21.647h-13.666v-3.354h33.547v3.354
		h-13.174l-42.521,24.552l50.68,87.777h17.803v3.354h-15.865l0.002,0.002h-32.281v-0.002h-18.947v-3.354h17.01l-42.609-73.799l0,0
		L132.12,192.686L132.12,192.686z M17.293,153.708h18.602V121.75V98.796v-9.005c0-25.881,21.174-47.055,47.054-47.055h0.002
		c19.611,0,36.527,12.175,43.568,29.327v0.002c1.443,3.142,2.248,6.638,2.248,10.322c0,13.679-11.091,24.77-24.771,24.77
		s-24.769-11.091-24.769-24.77c0-13.68,11.089-24.769,24.769-24.769c5.392,0,10.379,1.723,14.446,4.646
		c-5.639-6.994-14.268-11.49-23.898-11.49h-0.001c-16.881,0-30.694,13.812-30.694,30.692v17.328v54.911h18.602v3.354H63.849v7.665
		v65.441l-27.954,16.139v-89.245H17.293V153.708L17.293,153.708z M132.12,192.686l-27.957,16.141v-96.25
		c12.725-0.069,23.578-8.003,27.957-19.187V192.686L132.12,192.686z"/>
</g>
</svg>
